<?xml version="1.0" encoding="utf-8"?>
<!-- Generator: Adobe Illustrator 27.8.1, SVG Export Plug-In . SVG Version: 6.00 Build 0)  -->
<svg version="1.1" id="Layer_1" xmlns="http://www.w3.org/2000/svg" xmlns:xlink="http://www.w3.org/1999/xlink" x="0px" y="0px"
	 viewBox="0 0 1080 1080" style="enable-background:new 0 0 1080 1080;" xml:space="preserve">
<style type="text/css">
	.st0{fill:#4D4942;}
	.st1{display:none;fill:#4D4942;}
	.st2{fill:#434F30;}
</style>
<rect x="110.5" y="1064.1" class="st0" width="0.2" height="15.9"/>
<rect x="237" y="552.3" transform="matrix(0.6058 -0.7956 0.7956 0.6058 -259.1888 653.3636)" class="st1" width="585.5" height="71.9"/>
<path class="st2" d="M929.5,44.2c-57.4,5.2-227.7,106.2-253.9,129.4c-21.5,19-270.9,236.8-296.8,301.4
	c21,109.2,28.9,164.4,23.8,165.6c-4.7,1.1-20.4-43-47-132.3l-53.1,285.5l-172,242l60.9-38.9L325.9,815l359.3-448.9l35.4-10.7
	L336.4,845.9c82,6.7,141.5-8.7,178.5-22.3c240.8-88.9,368-543.6,371.8-557.2C912.4,174.1,923.9,95.9,929.5,44.2z"/>
</svg>
